<svg width="100" height="100" viewBox="0 0 100 100" fill="none" xmlns="http://www.w3.org/2000/svg">
<path fill-rule="evenodd" clip-rule="evenodd" d="M48.6979 0C46.1053 0 43.9427 1.98174 43.7169 4.56454L43.0211 12.5241C37.8923 13.5091 33.1308 15.5269 28.9613 18.3527C28.9279 18.324 28.8939 18.2958 28.8595 18.2679L22.6352 13.2221C20.6205 11.5888 17.6915 11.7672 15.8899 13.6328L13.9241 15.6684C12.1231 17.5334 12.0464 20.4657 13.7474 22.4223L18.9055 28.3551C15.9431 32.6764 13.852 37.6418 12.8852 42.9982C12.774 43.0005 12.662 43.0065 12.5493 43.0163L4.56689 43.7104C1.98308 43.935 0 46.098 0 48.6916V51.5214C0 54.114 1.98174 56.2766 4.56454 56.5024L12.547 57.2003C12.7025 57.2139 12.8568 57.2202 13.0097 57.2196C14.0252 62.3276 16.0662 67.0662 18.9092 71.2117C18.7365 71.367 18.5723 71.5363 18.4183 71.7197L13.2646 77.8549C11.5965 79.8408 11.7237 82.7725 13.5576 84.6064L15.5586 86.6074C17.3919 88.4407 20.3223 88.5686 22.3083 86.9019L28.4462 81.7509C28.642 81.5866 28.8219 81.4108 28.9857 81.2253C33.1428 84.038 37.8875 86.048 42.9972 87.0327C42.9978 87.1709 43.0041 87.3103 43.0163 87.4507L43.7103 95.4331C43.935 98.0169 46.098 100 48.6915 100H51.5214C54.114 100 56.2766 98.0183 56.5024 95.4355L57.2002 87.453C57.2113 87.3261 57.2176 87.2 57.2192 87.0749C62.4524 86.0988 67.3076 84.0483 71.5474 81.1612C71.6034 81.2127 71.6608 81.2632 71.7197 81.3126L77.8549 86.4663C79.8408 88.1345 82.7725 88.0073 84.6064 86.1733L86.6074 84.1723C88.4407 82.3391 88.5686 79.4086 86.9019 77.4226L81.7509 71.2847C81.7011 71.2253 81.6502 71.1674 81.5983 71.1109C84.4081 66.9854 86.4256 62.277 87.4319 57.2046L87.4507 57.203L95.4331 56.509C98.0169 56.2843 100 54.1213 100 51.5278V48.6979C100 46.1053 98.0183 43.9427 95.4355 43.7169L87.5588 43.0283C86.6042 37.7148 84.5433 32.7854 81.623 28.4869L81.6352 28.473L86.8952 22.4286C88.5978 20.4721 88.5217 17.5387 86.7201 15.673L84.7543 13.6374C82.9533 11.7724 80.0255 11.5934 78.0108 13.2252L71.7839 18.2682C71.7184 18.3213 71.6547 18.3756 71.5926 18.4311C67.3362 15.5237 62.4574 13.4604 57.1972 12.4825L56.509 4.56689C56.2843 1.98308 54.1213 0 51.5278 0H48.6979ZM49.1228 22.8901C35.1263 23.9548 23.9548 35.1263 22.8901 49.1228H31.5164C33.1764 40.0405 40.1647 32.8191 49.1228 30.8173V22.8901Z" fill="white" fill-opacity="0.1"/>
</svg>
